<?xml version="1.0" encoding="UTF-8" standalone="no"?>
<!DOCTYPE svg PUBLIC "-//W3C//DTD SVG 1.1//EN"
 "http://www.w3.org/Graphics/SVG/1.1/DTD/svg11.dtd">
<!-- Generated by graphviz version 12.2.1 (20241206.2353)
 -->
<!-- Title: G Pages: 1 -->
<svg width="1392pt" height="1389pt"
 viewBox="0.00 0.00 1391.75 1389.00" xmlns="http://www.w3.org/2000/svg" xmlns:xlink="http://www.w3.org/1999/xlink">
<g id="graph0" class="graph" transform="scale(1 1) rotate(0) translate(36 1353)">
<title>G</title>
<polygon fill="#f7f7f7" stroke="none" points="-36,36 -36,-1353 1355.75,-1353 1355.75,36 -36,36"/>
<!-- appmodelscomment -->
<g id="node1" class="node">
<title>appmodelscomment</title>
<polygon fill="none" stroke="black" points="110.12,-1072 10.12,-1072 10.12,-972 110.12,-972 110.12,-1072"/>
<polygon fill="#d3d3d3" stroke="none" points="10.12,-1033.5 10.12,-1072 110.12,-1072 110.12,-1033.5 10.12,-1033.5"/>
<polygon fill="none" stroke="black" points="10.12,-1033.5 10.12,-1072 110.12,-1072 110.12,-1033.5 10.12,-1033.5"/>
<text text-anchor="start" x="29.38" y="-1047.7" font-family="Helvetica Neue" font-size="14.00" fill="#333333">Comment</text>
</g>
<!-- appmodelsuser -->
<g id="node2" class="node">
<title>appmodelsuser</title>
<polygon fill="none" stroke="black" points="770.25,-761 670.25,-761 670.25,-661 770.25,-661 770.25,-761"/>
<polygon fill="#d3d3d3" stroke="none" points="670.25,-722.5 670.25,-761 770.25,-761 770.25,-722.5 670.25,-722.5"/>
<polygon fill="none" stroke="black" points="670.25,-722.5 670.25,-761 770.25,-761 770.25,-722.5 670.25,-722.5"/>
<text text-anchor="start" x="706" y="-736.7" font-family="Helvetica Neue" font-size="14.00" fill="#333333">User</text>
</g>
<!-- appmodelscomment&#45;&gt;appmodelsuser -->
<g id="edge1" class="edge">
<title>appmodelscomment:author_id&#45;&gt;appmodelsuser:id</title>
<path fill="none" stroke="#d62828" stroke-width="1.8" d="M110.47,-1017.65C221.32,-1007.87 480.5,-985 480.5,-985 480.5,-985 602.63,-844.84 672.19,-765.01"/>
<polygon fill="#d62828" stroke="#d62828" stroke-width="1.8" points="671.03,-758.73 678.57,-765.29 677.26,-766.8 669.72,-760.23 671.03,-758.73"/>
<polyline fill="none" stroke="#d62828" stroke-width="1.8" points="675.46,-761.26 672.17,-765.03"/>
<text text-anchor="middle" x="374.25" y="-1006.7" font-family="Helvetica Neue" font-size="14.00"> </text>
<text text-anchor="middle" x="416.06" y="-975.2" font-family="Helvetica Neue" font-size="14.00">HasOne</text>
<text text-anchor="middle" x="416.06" y="-958.7" font-family="Helvetica Neue" font-size="14.00">author</text>
</g>
<!-- appmodelspost -->
<g id="node3" class="node">
<title>appmodelspost</title>
<polygon fill="none" stroke="black" points="424.25,-949 324.25,-949 324.25,-849 424.25,-849 424.25,-949"/>
<polygon fill="#d3d3d3" stroke="none" points="324.25,-910.5 324.25,-949 424.25,-949 424.25,-910.5 324.25,-910.5"/>
<polygon fill="none" stroke="black" points="324.25,-910.5 324.25,-949 424.25,-949 424.25,-910.5 324.25,-910.5"/>
<text text-anchor="start" x="360" y="-924.7" font-family="Helvetica Neue" font-size="14.00" fill="#333333">Post</text>
</g>
<!-- appmodelscomment&#45;&gt;appmodelspost -->
<g id="edge2" class="edge">
<title>appmodelscomment:post_id&#45;&gt;appmodelspost:id</title>
<path fill="none" stroke="#d62828" stroke-width="1.8" d="M110.58,-1002.51C167.46,-980.1 260.52,-943.42 319.25,-920.28"/>
<polygon fill="#d62828" stroke="#d62828" stroke-width="1.8" points="321,-914.21 324.67,-923.52 322.81,-924.25 319.14,-914.95 321,-914.21"/>
<polyline fill="none" stroke="#d62828" stroke-width="1.8" points="323.77,-918.5 319.11,-920.33"/>
<text text-anchor="middle" x="194.12" y="-972.89" font-family="Helvetica Neue" font-size="14.00"> </text>
<text text-anchor="middle" x="190.17" y="-948.1" font-family="Helvetica Neue" font-size="14.00">HasOne</text>
<text text-anchor="middle" x="190.17" y="-931.6" font-family="Helvetica Neue" font-size="14.00">post</text>
</g>
<!-- appmodelsteam -->
<g id="node12" class="node">
<title>appmodelsteam</title>
<polygon fill="none" stroke="black" points="1319.75,-550 1219.75,-550 1219.75,-450 1319.75,-450 1319.75,-550"/>
<polygon fill="#d3d3d3" stroke="none" points="1219.75,-511.5 1219.75,-550 1319.75,-550 1319.75,-511.5 1219.75,-511.5"/>
<polygon fill="none" stroke="black" points="1219.75,-511.5 1219.75,-550 1319.75,-550 1319.75,-511.5 1219.75,-511.5"/>
<text text-anchor="start" x="1252.88" y="-525.7" font-family="Helvetica Neue" font-size="14.00" fill="#333333">Team</text>
</g>
<!-- appmodelsuser&#45;&gt;appmodelsteam -->
<g id="edge13" class="edge">
<title>appmodelsuser:current_team_id&#45;&gt;appmodelsteam:id</title>
<path fill="none" stroke="#f77f00" stroke-width="1.8" d="M887.12,-774C887.12,-774 1144.88,-774 1144.88,-774"/>
<text text-anchor="middle" x="1016" y="-777.2" font-family="Helvetica Neue" font-size="14.00"> </text>
<text text-anchor="middle" x="977.38" y="-760.7" font-family="Helvetica Neue" font-size="14.00">BelongsTo</text>
<text text-anchor="middle" x="977.38" y="-744.2" font-family="Helvetica Neue" font-size="14.00">currentTeam</text>
</g>
<!-- appmodelsuser&#45;&gt;appmodelsteam -->
<g id="edge14" class="edge">
<title>appmodelsuser:id&#45;&gt;appmodelsteam:user_id</title>
<path fill="none" stroke="#fcbf49" stroke-width="1.8" d="M1146.88,-774C1146.88,-774 1206.28,-640.44 1242.15,-559.81"/>
<polygon fill="#fcbf49" stroke="#fcbf49" stroke-width="1.8" points="1242.09,-559.94 1250.26,-552.63 1244.36,-554.82 1245.91,-551.36 1245.91,-551.36 1245.91,-551.36 1244.36,-554.82 1242.04,-548.98 1242.09,-559.94"/>
<path fill="none" stroke="#fcbf49" stroke-width="1.8" d="M770.42,-729.9C818.69,-748.46 885.12,-774 885.12,-774"/>
<path fill="none" stroke="#fcbf49" stroke-width="1.8" d="M887.12,-774C887.12,-774 960,-739.5 960,-739.5 960,-739.5 1072,-739.5 1072,-739.5 1072,-739.5 1144.88,-774 1144.88,-774"/>
<text text-anchor="middle" x="1016" y="-742.7" font-family="Helvetica Neue" font-size="14.00"> </text>
<text text-anchor="middle" x="887.15" y="-745.62" font-family="Helvetica Neue" font-size="14.00">HasMany</text>
<text text-anchor="middle" x="887.15" y="-729.12" font-family="Helvetica Neue" font-size="14.00">ownedTeams</text>
</g>
<!-- team_user -->
<g id="node13" class="node">
<title>team_user</title>
<polygon fill="none" stroke="black" points="1066,-550 966,-550 966,-450 1066,-450 1066,-550"/>
<polygon fill="#d3d3d3" stroke="none" points="966,-511.5 966,-550 1066,-550 1066,-511.5 966,-511.5"/>
<polygon fill="none" stroke="black" points="966,-511.5 966,-550 1066,-550 1066,-511.5 966,-511.5"/>
<text text-anchor="start" x="977.38" y="-525.7" font-family="Helvetica Neue" font-size="14.00" fill="#333333">Membership</text>
</g>
<!-- appmodelsuser&#45;&gt;team_user -->
<g id="edge15" class="edge">
<title>appmodelsuser:id&#45;&gt;team_user:user_id</title>
<path fill="none" stroke="#003049" stroke-width="1.8" d="M770.75,-675.45C821.75,-638.81 901.25,-581.71 955.61,-542.66"/>
<polygon fill="#003049" stroke="#003049" stroke-width="1.8" points="957.5,-545.61 963.58,-536.94 953.41,-539.93 957.5,-545.61"/>
<text text-anchor="middle" x="886.12" y="-596.07" font-family="Helvetica Neue" font-size="14.00"> </text>
<text text-anchor="middle" x="813.3" y="-595.75" font-family="Helvetica Neue" font-size="14.00">BelongsToMany</text>
<text text-anchor="middle" x="813.3" y="-579.25" font-family="Helvetica Neue" font-size="14.00">teams</text>
</g>
<!-- appmodelspost&#45;&gt;appmodelsuser -->
<g id="edge10" class="edge">
<title>appmodelspost:author_id&#45;&gt;appmodelsuser:id</title>
<path fill="none" stroke="#d62828" stroke-width="1.8" d="M424.71,-874.95C478.3,-848.9 556.25,-811 556.25,-811 556.25,-811 618.14,-773.03 665.64,-743.89"/>
<polygon fill="#d62828" stroke="#d62828" stroke-width="1.8" points="666.44,-737.54 671.66,-746.06 669.96,-747.11 664.73,-738.58 666.44,-737.54"/>
<polyline fill="none" stroke="#d62828" stroke-width="1.8" points="669.9,-741.27 665.64,-743.89"/>
<text text-anchor="middle" x="554.38" y="-815.8" font-family="Helvetica Neue" font-size="14.00"> </text>
<text text-anchor="middle" x="523.44" y="-801.62" font-family="Helvetica Neue" font-size="14.00">HasOne</text>
<text text-anchor="middle" x="523.44" y="-785.12" font-family="Helvetica Neue" font-size="14.00">author</text>
</g>
<!-- appmodelscoreattachment -->
<g id="node4" class="node">
<title>appmodelscoreattachment</title>
<polygon fill="none" stroke="black" points="424.25,-616 324.25,-616 324.25,-516 424.25,-516 424.25,-616"/>
<polygon fill="#d3d3d3" stroke="none" points="324.25,-577.5 324.25,-616 424.25,-616 424.25,-577.5 324.25,-577.5"/>
<polygon fill="none" stroke="black" points="324.25,-577.5 324.25,-616 424.25,-616 424.25,-577.5 324.25,-577.5"/>
<text text-anchor="start" x="338.25" y="-591.7" font-family="Helvetica Neue" font-size="14.00" fill="#333333">Attachment</text>
</g>
<!-- appmodelscoreattachment&#45;&gt;appmodelsuser -->
<g id="edge3" class="edge">
<title>appmodelscoreattachment:user_id&#45;&gt;appmodelsuser:id</title>
<path fill="none" stroke="#d62828" stroke-width="1.8" d="M424.54,-586.77C488.44,-613.71 599.48,-660.52 665.49,-688.34"/>
<polygon fill="#d62828" stroke="#d62828" stroke-width="1.8" points="670.8,-685.15 666.91,-694.37 665.07,-693.59 668.95,-684.37 670.8,-685.15"/>
<polyline fill="none" stroke="#d62828" stroke-width="1.8" points="669.78,-690.15 665.17,-688.2"/>
<text text-anchor="middle" x="554.38" y="-644.96" font-family="Helvetica Neue" font-size="14.00"> </text>
<text text-anchor="middle" x="520.27" y="-624.26" font-family="Helvetica Neue" font-size="14.00">HasOne</text>
<text text-anchor="middle" x="520.27" y="-607.76" font-family="Helvetica Neue" font-size="14.00">user</text>
</g>
<!-- appmodelscoreattachmentable -->
<g id="node5" class="node">
<title>appmodelscoreattachmentable</title>
<polygon fill="none" stroke="black" points="120.25,-624 0,-624 0,-524 120.25,-524 120.25,-624"/>
<polygon fill="#d3d3d3" stroke="none" points="0,-585.5 0,-624 120.25,-624 120.25,-585.5 0,-585.5"/>
<polygon fill="none" stroke="black" points="0,-585.5 0,-624 120.25,-624 120.25,-585.5 0,-585.5"/>
<text text-anchor="start" x="11" y="-599.7" font-family="Helvetica Neue" font-size="14.00" fill="#333333">Attachmentable</text>
</g>
<!-- appmodelscoreattachmentable&#45;&gt;appmodelscoreattachment -->
<g id="edge4" class="edge">
<title>appmodelscoreattachmentable:attachmentable_id&#45;&gt;appmodelscoreattachment:id</title>
<path fill="none" stroke="#d62828" stroke-width="1.8" d="M120.57,-572.48C177.74,-571.01 263.44,-568.81 318.86,-567.39"/>
<polygon fill="#d62828" stroke="#d62828" stroke-width="1.8" points="322.66,-562.3 322.92,-572.29 320.92,-572.34 320.66,-562.35 322.66,-562.3"/>
<polyline fill="none" stroke="#d62828" stroke-width="1.8" points="323.79,-567.27 318.79,-567.4"/>
<text text-anchor="middle" x="194.12" y="-573.8" font-family="Helvetica Neue" font-size="14.00"> </text>
<text text-anchor="middle" x="268.09" y="-556.64" font-family="Helvetica Neue" font-size="14.00">HasOne</text>
<text text-anchor="middle" x="268.09" y="-540.14" font-family="Helvetica Neue" font-size="14.00">attachmentable</text>
</g>
<!-- appmodelscoreattachmentable&#45;&gt;appmodelscoreattachment -->
<g id="edge5" class="edge">
<title>appmodelscoreattachmentable:attachment_id&#45;&gt;appmodelscoreattachment:id</title>
<path fill="none" stroke="#d62828" stroke-width="1.8" d="M120.55,-557.01C155.24,-547.08 192.25,-536.5 192.25,-536.5 192.25,-536.5 196,-536.5 196,-536.5 196,-536.5 267.07,-548.33 319.21,-557.01"/>
<polygon fill="#d62828" stroke="#d62828" stroke-width="1.8" points="323.71,-552.69 322.07,-562.55 320.1,-562.22 321.74,-552.36 323.71,-552.69"/>
<polyline fill="none" stroke="#d62828" stroke-width="1.8" points="323.88,-557.78 318.94,-556.96"/>
<text text-anchor="middle" x="194.12" y="-539.7" font-family="Helvetica Neue" font-size="14.00"> </text>
<text text-anchor="middle" x="183.72" y="-527.02" font-family="Helvetica Neue" font-size="14.00">HasOne</text>
<text text-anchor="middle" x="183.72" y="-510.52" font-family="Helvetica Neue" font-size="14.00">attachment</text>
</g>
<!-- appmodelscoreroleuser -->
<g id="node6" class="node">
<title>appmodelscoreroleuser</title>
<polygon fill="none" stroke="black" points="110.12,-1304 10.12,-1304 10.12,-1204 110.12,-1204 110.12,-1304"/>
<polygon fill="#d3d3d3" stroke="none" points="10.12,-1265.5 10.12,-1304 110.12,-1304 110.12,-1265.5 10.12,-1265.5"/>
<polygon fill="none" stroke="black" points="10.12,-1265.5 10.12,-1304 110.12,-1304 110.12,-1265.5 10.12,-1265.5"/>
<text text-anchor="start" x="31.62" y="-1279.7" font-family="Helvetica Neue" font-size="14.00" fill="#333333">RoleUser</text>
</g>
<!-- appmodelscorerole -->
<g id="node7" class="node">
<title>appmodelscorerole</title>
<polygon fill="none" stroke="black" points="424.25,-1317 324.25,-1317 324.25,-1217 424.25,-1217 424.25,-1317"/>
<polygon fill="#d3d3d3" stroke="none" points="324.25,-1278.5 324.25,-1317 424.25,-1317 424.25,-1278.5 324.25,-1278.5"/>
<polygon fill="none" stroke="black" points="324.25,-1278.5 324.25,-1317 424.25,-1317 424.25,-1278.5 324.25,-1278.5"/>
<text text-anchor="start" x="360" y="-1292.7" font-family="Helvetica Neue" font-size="14.00" fill="#333333">Role</text>
</g>
<!-- appmodelscoreroleuser&#45;&gt;appmodelscorerole -->
<g id="edge6" class="edge">
<title>appmodelscoreroleuser:role_id&#45;&gt;appmodelscorerole:id</title>
<path fill="none" stroke="#d62828" stroke-width="1.8" d="M110.58,-1256.06C167.35,-1258.42 260.15,-1262.29 318.89,-1264.74"/>
<polygon fill="#d62828" stroke="#d62828" stroke-width="1.8" points="322.98,-1259.9 322.56,-1269.89 320.56,-1269.81 320.98,-1259.82 322.98,-1259.9"/>
<polyline fill="none" stroke="#d62828" stroke-width="1.8" points="323.77,-1264.94 318.77,-1264.73"/>
<text text-anchor="middle" x="194.12" y="-1262.73" font-family="Helvetica Neue" font-size="14.00"> </text>
<text text-anchor="middle" x="239.49" y="-1280.1" font-family="Helvetica Neue" font-size="14.00">HasOne</text>
<text text-anchor="middle" x="239.49" y="-1263.6" font-family="Helvetica Neue" font-size="14.00">role</text>
</g>
<!-- appmodelscoreroleuser&#45;&gt;appmodelscorerole -->
<g id="edge7" class="edge">
<title>appmodelscoreroleuser:role_id&#45;&gt;appmodelscorerole:id</title>
<path fill="none" stroke="#d62828" stroke-width="1.8" d="M110.32,-1243.31C147.53,-1235.22 192.25,-1225.5 192.25,-1225.5 192.25,-1225.5 196,-1225.5 196,-1225.5 196,-1225.5 267.07,-1242.14 319.21,-1254.35"/>
<polygon fill="#d62828" stroke="#d62828" stroke-width="1.8" points="324.04,-1250.34 321.76,-1260.08 319.82,-1259.62 322.09,-1249.89 324.04,-1250.34"/>
<polyline fill="none" stroke="#d62828" stroke-width="1.8" points="323.88,-1255.44 319.01,-1254.3"/>
<text text-anchor="middle" x="194.12" y="-1228.7" font-family="Helvetica Neue" font-size="14.00"> </text>
<text text-anchor="middle" x="239.71" y="-1216.64" font-family="Helvetica Neue" font-size="14.00">HasOne</text>
<text text-anchor="middle" x="239.71" y="-1200.14" font-family="Helvetica Neue" font-size="14.00">user</text>
</g>
<!-- appmodelsorderitem -->
<g id="node8" class="node">
<title>appmodelsorderitem</title>
<polygon fill="none" stroke="black" points="110.12,-366 10.12,-366 10.12,-266 110.12,-266 110.12,-366"/>
<polygon fill="#d3d3d3" stroke="none" points="10.12,-327.5 10.12,-366 110.12,-366 110.12,-327.5 10.12,-327.5"/>
<polygon fill="none" stroke="black" points="10.12,-327.5 10.12,-366 110.12,-366 110.12,-327.5 10.12,-327.5"/>
<text text-anchor="start" x="28.62" y="-341.7" font-family="Helvetica Neue" font-size="14.00" fill="#333333">OrderItem</text>
</g>
<!-- appmodelstransaction -->
<g id="node9" class="node">
<title>appmodelstransaction</title>
<polygon fill="none" stroke="black" points="424.25,-444 324.25,-444 324.25,-344 424.25,-344 424.25,-444"/>
<polygon fill="#d3d3d3" stroke="none" points="324.25,-405.5 324.25,-444 424.25,-444 424.25,-405.5 324.25,-405.5"/>
<polygon fill="none" stroke="black" points="324.25,-405.5 324.25,-444 424.25,-444 424.25,-405.5 324.25,-405.5"/>
<text text-anchor="start" x="338.62" y="-419.7" font-family="Helvetica Neue" font-size="14.00" fill="#333333">Transaction</text>
</g>
<!-- appmodelsorderitem&#45;&gt;appmodelstransaction -->
<g id="edge8" class="edge">
<title>appmodelsorderitem:transaction_id&#45;&gt;appmodelstransaction:id</title>
<path fill="none" stroke="#d62828" stroke-width="1.8" d="M110.58,-328.36C167.46,-342.57 260.52,-365.83 319.25,-380.5"/>
<polygon fill="#d62828" stroke="#d62828" stroke-width="1.8" points="324.01,-376.54 321.58,-386.24 319.64,-385.76 322.07,-376.06 324.01,-376.54"/>
<polyline fill="none" stroke="#d62828" stroke-width="1.8" points="323.77,-381.63 318.92,-380.42"/>
<text text-anchor="middle" x="194.12" y="-352.37" font-family="Helvetica Neue" font-size="14.00"> </text>
<text text-anchor="middle" x="249.42" y="-341.13" font-family="Helvetica Neue" font-size="14.00">HasOne</text>
<text text-anchor="middle" x="249.42" y="-324.63" font-family="Helvetica Neue" font-size="14.00">transaction</text>
</g>
<!-- appmodelsproduct -->
<g id="node10" class="node">
<title>appmodelsproduct</title>
<polygon fill="none" stroke="black" points="424.25,-272 324.25,-272 324.25,-172 424.25,-172 424.25,-272"/>
<polygon fill="#d3d3d3" stroke="none" points="324.25,-233.5 324.25,-272 424.25,-272 424.25,-233.5 324.25,-233.5"/>
<polygon fill="none" stroke="black" points="324.25,-233.5 324.25,-272 424.25,-272 424.25,-233.5 324.25,-233.5"/>
<text text-anchor="start" x="349.5" y="-247.7" font-family="Helvetica Neue" font-size="14.00" fill="#333333">Product</text>
</g>
<!-- appmodelsorderitem&#45;&gt;appmodelsproduct -->
<g id="edge9" class="edge">
<title>appmodelsorderitem:product_id&#45;&gt;appmodelsproduct:id</title>
<path fill="none" stroke="#d62828" stroke-width="1.8" d="M110.58,-301.11C167.46,-283.98 260.52,-255.95 319.25,-238.26"/>
<polygon fill="#d62828" stroke="#d62828" stroke-width="1.8" points="321.37,-232.4 324.25,-241.98 322.34,-242.56 319.45,-232.98 321.37,-232.4"/>
<polyline fill="none" stroke="#d62828" stroke-width="1.8" points="323.77,-236.9 318.98,-238.34"/>
<text text-anchor="middle" x="194.12" y="-279.23" font-family="Helvetica Neue" font-size="14.00"> </text>
<text text-anchor="middle" x="190.17" y="-256.38" font-family="Helvetica Neue" font-size="14.00">HasOne</text>
<text text-anchor="middle" x="190.17" y="-239.88" font-family="Helvetica Neue" font-size="14.00">product</text>
</g>
<!-- appmodelstransaction&#45;&gt;appmodelsuser -->
<g id="edge12" class="edge">
<title>appmodelstransaction:user_id&#45;&gt;appmodelsuser:id</title>
<path fill="none" stroke="#d62828" stroke-width="1.8" d="M424.49,-434.23C451.88,-456.61 480.5,-480 480.5,-480 480.5,-480 596.15,-591.89 666.47,-659.93"/>
<polygon fill="#d62828" stroke="#d62828" stroke-width="1.8" points="672.54,-658.85 665.59,-666.03 664.15,-664.64 671.1,-657.46 672.54,-658.85"/>
<polyline fill="none" stroke="#d62828" stroke-width="1.8" points="669.78,-663.14 666.19,-659.66"/>
<text text-anchor="middle" x="554.38" y="-554.67" font-family="Helvetica Neue" font-size="14.00"> </text>
<text text-anchor="middle" x="522.74" y="-531.52" font-family="Helvetica Neue" font-size="14.00">HasOne</text>
<text text-anchor="middle" x="522.74" y="-515.02" font-family="Helvetica Neue" font-size="14.00">user</text>
</g>
<!-- appmodelsteaminvitation -->
<g id="node11" class="node">
<title>appmodelsteaminvitation</title>
<polygon fill="none" stroke="black" points="1072,-378 960,-378 960,-278 1072,-278 1072,-378"/>
<polygon fill="#d3d3d3" stroke="none" points="960,-339.5 960,-378 1072,-378 1072,-339.5 960,-339.5"/>
<polygon fill="none" stroke="black" points="960,-339.5 960,-378 1072,-378 1072,-339.5 960,-339.5"/>
<text text-anchor="start" x="971" y="-353.7" font-family="Helvetica Neue" font-size="14.00" fill="#333333">TeamInvitation</text>
</g>
<!-- appmodelsteaminvitation&#45;&gt;appmodelsteam -->
<g id="edge11" class="edge">
<title>appmodelsteaminvitation:team_id&#45;&gt;appmodelsteam:id</title>
<path fill="none" stroke="#f77f00" stroke-width="1.8" d="M1080.96,-371.7C1122.69,-400.21 1176.52,-436.98 1215.83,-463.85"/>
<polygon fill="#f77f00" stroke="#f77f00" stroke-width="1.8" points="1081,-371.73 1075.28,-362.37 1076.38,-368.57 1073.24,-366.43 1073.24,-366.43 1073.24,-366.43 1076.38,-368.57 1070.21,-369.8 1081,-371.73"/>
<polygon fill="#f77f00" stroke="#f77f00" stroke-width="1.8" points="1221.59,-461.72 1215.95,-469.98 1214.3,-468.85 1219.94,-460.59 1221.59,-461.72"/>
<polyline fill="none" stroke="#f77f00" stroke-width="1.8" points="1219.59,-466.42 1215.47,-463.59"/>
<text text-anchor="middle" x="1145.88" y="-419.78" font-family="Helvetica Neue" font-size="14.00"> </text>
<text text-anchor="middle" x="1181.4" y="-404.47" font-family="Helvetica Neue" font-size="14.00">BelongsTo</text>
<text text-anchor="middle" x="1181.4" y="-387.97" font-family="Helvetica Neue" font-size="14.00">team</text>
</g>
<!-- team_user&#45;&gt;appmodelsteam -->
<g id="edge16" class="edge">
<title>team_user:team_id&#45;&gt;appmodelsteam:id</title>
<path fill="none" stroke="#003049" stroke-width="1.8" d="M1066.44,-500C1106.62,-500 1163.54,-500 1206.77,-500"/>
<polygon fill="#003049" stroke="#003049" stroke-width="1.8" points="1206.7,-503.5 1216.7,-500 1206.7,-496.5 1206.7,-503.5"/>
<text text-anchor="middle" x="1145.88" y="-503.2" font-family="Helvetica Neue" font-size="14.00"> </text>
<text text-anchor="middle" x="1186.48" y="-486.7" font-family="Helvetica Neue" font-size="14.00">BelongsToMany</text>
<text text-anchor="middle" x="1186.48" y="-470.2" font-family="Helvetica Neue" font-size="14.00">teams</text>
</g>
<!-- appmodelsuseradditionalinformationuser -->
<g id="node14" class="node">
<title>appmodelsuseradditionalinformationuser</title>
<polygon fill="none" stroke="black" points="480.5,-100 268,-100 268,0 480.5,0 480.5,-100"/>
<polygon fill="#d3d3d3" stroke="none" points="268,-61.5 268,-100 480.5,-100 480.5,-61.5 268,-61.5"/>
<polygon fill="none" stroke="black" points="268,-61.5 268,-100 480.5,-100 480.5,-61.5 268,-61.5"/>
<text text-anchor="start" x="279" y="-75.7" font-family="Helvetica Neue" font-size="14.00" fill="#333333">UserAdditionalInformationUser</text>
</g>
<!-- appmodelsuseradditionalinformationuser&#45;&gt;appmodelsuser -->
<g id="edge17" class="edge">
<title>appmodelsuseradditionalinformationuser:user_id&#45;&gt;appmodelsuser:id</title>
<path fill="none" stroke="#d62828" stroke-width="1.8" d="M436.78,-100.28C459.81,-119.1 480.5,-136 480.5,-136 480.5,-136 636.79,-512.41 696.47,-656.13"/>
<polygon fill="#d62828" stroke="#d62828" stroke-width="1.8" points="702.61,-657.89 693.37,-661.72 692.61,-659.87 701.84,-656.04 702.61,-657.89"/>
<polyline fill="none" stroke="#d62828" stroke-width="1.8" points="698.38,-660.73 696.46,-656.11"/>
<text text-anchor="middle" x="554.38" y="-317.1" font-family="Helvetica Neue" font-size="14.00"> </text>
<text text-anchor="middle" x="552.91" y="-356.69" font-family="Helvetica Neue" font-size="14.00">HasOne</text>
<text text-anchor="middle" x="552.91" y="-340.19" font-family="Helvetica Neue" font-size="14.00">user</text>
</g>
<!-- appmodelsuseradditionalinformation -->
<g id="node15" class="node">
<title>appmodelsuseradditionalinformation</title>
<polygon fill="none" stroke="black" points="812.25,-100 628.25,-100 628.25,0 812.25,0 812.25,-100"/>
<polygon fill="#d3d3d3" stroke="none" points="628.25,-61.5 628.25,-100 812.25,-100 812.25,-61.5 628.25,-61.5"/>
<polygon fill="none" stroke="black" points="628.25,-61.5 628.25,-100 812.25,-100 812.25,-61.5 628.25,-61.5"/>
<text text-anchor="start" x="639.25" y="-75.7" font-family="Helvetica Neue" font-size="14.00" fill="#333333">UserAdditionalInformation</text>
</g>
<!-- appmodelsuseradditionalinformationuser&#45;&gt;appmodelsuseradditionalinformation -->
<g id="edge18" class="edge">
<title>appmodelsuseradditionalinformationuser:user_additional_information_id&#45;&gt;appmodelsuseradditionalinformation:id</title>
<path fill="none" stroke="#d62828" stroke-width="1.8" d="M480.8,-50C526.15,-50 578.79,-50 623.05,-50"/>
<polygon fill="#d62828" stroke="#d62828" stroke-width="1.8" points="626.86,-45 626.86,-55 624.86,-55 624.86,-45 626.86,-45"/>
<polyline fill="none" stroke="#d62828" stroke-width="1.8" points="627.86,-50 622.86,-50"/>
<text text-anchor="middle" x="554.38" y="-53.2" font-family="Helvetica Neue" font-size="14.00"> </text>
<text text-anchor="middle" x="631.8" y="-36.7" font-family="Helvetica Neue" font-size="14.00">HasOne</text>
<text text-anchor="middle" x="631.8" y="-20.2" font-family="Helvetica Neue" font-size="14.00">userAdditionalInformation</text>
</g>
<!-- appmodelsviewer -->
<g id="node16" class="node">
<title>appmodelsviewer</title>
<polygon fill="none" stroke="black" points="110.12,-861 10.12,-861 10.12,-761 110.12,-761 110.12,-861"/>
<polygon fill="#d3d3d3" stroke="none" points="10.12,-822.5 10.12,-861 110.12,-861 110.12,-822.5 10.12,-822.5"/>
<polygon fill="none" stroke="black" points="10.12,-822.5 10.12,-861 110.12,-861 110.12,-822.5 10.12,-822.5"/>
<text text-anchor="start" x="39.5" y="-836.7" font-family="Helvetica Neue" font-size="14.00" fill="#333333">Viewer</text>
</g>
<!-- appmodelsviewer&#45;&gt;appmodelsuser -->
<g id="edge19" class="edge">
<title>appmodelsviewer:user_id&#45;&gt;appmodelsuser:id</title>
<path fill="none" stroke="#d62828" stroke-width="1.8" d="M110.59,-803.48C231.3,-785.14 540.21,-738.2 665.37,-719.19"/>
<polygon fill="#d62828" stroke="#d62828" stroke-width="1.8" points="668.37,-713.67 669.87,-723.56 667.89,-723.86 666.39,-713.97 668.37,-713.67"/>
<polyline fill="none" stroke="#d62828" stroke-width="1.8" points="670.11,-718.47 665.16,-719.22"/>
<text text-anchor="middle" x="374.25" y="-782.17" font-family="Helvetica Neue" font-size="14.00"> </text>
<text text-anchor="middle" x="363.23" y="-748.04" font-family="Helvetica Neue" font-size="14.00">HasOne</text>
<text text-anchor="middle" x="363.23" y="-731.54" font-family="Helvetica Neue" font-size="14.00">user</text>
</g>
<!-- appmodelsviewer&#45;&gt;appmodelspost -->
<g id="edge20" class="edge">
<title>appmodelsviewer:post_id&#45;&gt;appmodelspost:id</title>
<path fill="none" stroke="#d62828" stroke-width="1.8" d="M110.58,-824.94C167.46,-840.98 260.52,-867.22 319.25,-883.77"/>
<polygon fill="#d62828" stroke="#d62828" stroke-width="1.8" points="324.16,-879.96 321.45,-889.59 319.52,-889.05 322.24,-879.42 324.16,-879.96"/>
<polyline fill="none" stroke="#d62828" stroke-width="1.8" points="323.77,-885.05 318.95,-883.69"/>
<text text-anchor="middle" x="194.12" y="-851.62" font-family="Helvetica Neue" font-size="14.00"> </text>
<text text-anchor="middle" x="239.67" y="-841.06" font-family="Helvetica Neue" font-size="14.00">HasOne</text>
<text text-anchor="middle" x="239.67" y="-824.56" font-family="Helvetica Neue" font-size="14.00">post</text>
</g>
</g>
</svg>
